<svg width="42" height="42" viewBox="0 0 42 42" fill="none" xmlns="http://www.w3.org/2000/svg">
<mask id="mask0_16_343" style="mask-type:alpha" maskUnits="userSpaceOnUse" x="0" y="0" width="42" height="42">
<rect x="0.767822" y="0.204285" width="41.0215" height="41.0215" fill="#D9D9D9"/>
</mask>
<g mask="url(#mask0_16_343)">
<path d="M9.31372 37.8072C8.37364 37.8072 7.56888 37.4725 6.89944 36.803C6.22999 36.1336 5.89526 35.3288 5.89526 34.3887V10.4595C5.89526 9.51946 6.22999 8.7147 6.89944 8.04525C7.56888 7.3758 8.37364 7.04108 9.31372 7.04108H11.0229V3.62262H14.4414V7.04108H28.1152V3.62262H31.5337V7.04108H33.2429C34.183 7.04108 34.9877 7.3758 35.6572 8.04525C36.3266 8.7147 36.6614 9.51946 36.6614 10.4595V34.3887C36.6614 35.3288 36.3266 36.1336 35.6572 36.803C34.9877 37.4725 34.183 37.8072 33.2429 37.8072H9.31372ZM9.31372 34.3887H33.2429V17.2965H9.31372V34.3887ZM9.31372 13.878H33.2429V10.4595H9.31372V13.878ZM21.2783 24.1334C20.794 24.1334 20.3881 23.9696 20.0605 23.642C19.7329 23.3144 19.5691 22.9084 19.5691 22.4241C19.5691 21.9399 19.7329 21.5339 20.0605 21.2063C20.3881 20.8787 20.794 20.7149 21.2783 20.7149C21.7626 20.7149 22.1685 20.8787 22.4961 21.2063C22.8237 21.5339 22.9875 21.9399 22.9875 22.4241C22.9875 22.9084 22.8237 23.3144 22.4961 23.642C22.1685 23.9696 21.7626 24.1334 21.2783 24.1334ZM14.4414 24.1334C13.9571 24.1334 13.5512 23.9696 13.2236 23.642C12.896 23.3144 12.7322 22.9084 12.7322 22.4241C12.7322 21.9399 12.896 21.5339 13.2236 21.2063C13.5512 20.8787 13.9571 20.7149 14.4414 20.7149C14.9257 20.7149 15.3316 20.8787 15.6592 21.2063C15.9868 21.5339 16.1506 21.9399 16.1506 22.4241C16.1506 22.9084 15.9868 23.3144 15.6592 23.642C15.3316 23.9696 14.9257 24.1334 14.4414 24.1334ZM28.1152 24.1334C27.6309 24.1334 27.225 23.9696 26.8974 23.642C26.5698 23.3144 26.406 22.9084 26.406 22.4241C26.406 21.9399 26.5698 21.5339 26.8974 21.2063C27.225 20.8787 27.6309 20.7149 28.1152 20.7149C28.5995 20.7149 29.0055 20.8787 29.3331 21.2063C29.6607 21.5339 29.8245 21.9399 29.8245 22.4241C29.8245 22.9084 29.6607 23.3144 29.3331 23.642C29.0055 23.9696 28.5995 24.1334 28.1152 24.1334ZM21.2783 30.9703C20.794 30.9703 20.3881 30.8065 20.0605 30.4789C19.7329 30.1513 19.5691 29.7453 19.5691 29.2611C19.5691 28.7768 19.7329 28.3708 20.0605 28.0432C20.3881 27.7156 20.794 27.5518 21.2783 27.5518C21.7626 27.5518 22.1685 27.7156 22.4961 28.0432C22.8237 28.3708 22.9875 28.7768 22.9875 29.2611C22.9875 29.7453 22.8237 30.1513 22.4961 30.4789C22.1685 30.8065 21.7626 30.9703 21.2783 30.9703ZM14.4414 30.9703C13.9571 30.9703 13.5512 30.8065 13.2236 30.4789C12.896 30.1513 12.7322 29.7453 12.7322 29.2611C12.7322 28.7768 12.896 28.3708 13.2236 28.0432C13.5512 27.7156 13.9571 27.5518 14.4414 27.5518C14.9257 27.5518 15.3316 27.7156 15.6592 28.0432C15.9868 28.3708 16.1506 28.7768 16.1506 29.2611C16.1506 29.7453 15.9868 30.1513 15.6592 30.4789C15.3316 30.8065 14.9257 30.9703 14.4414 30.9703ZM28.1152 30.9703C27.6309 30.9703 27.225 30.8065 26.8974 30.4789C26.5698 30.1513 26.406 29.7453 26.406 29.2611C26.406 28.7768 26.5698 28.3708 26.8974 28.0432C27.225 27.7156 27.6309 27.5518 28.1152 27.5518C28.5995 27.5518 29.0055 27.7156 29.3331 28.0432C29.6607 28.3708 29.8245 28.7768 29.8245 29.2611C29.8245 29.7453 29.6607 30.1513 29.3331 30.4789C29.0055 30.8065 28.5995 30.9703 28.1152 30.9703Z" fill="#FF695D"/>
</g>
</svg>
