<svg width="1500" height="1500" viewBox="0 0 1500 1500" fill="none" xmlns="http://www.w3.org/2000/svg">
<rect width="1500" height="1500" fill="white"/>
<path d="M231.648 653H127.102L175.398 362.091H277.955C307.216 362.091 331.506 368.057 350.824 379.989C370.237 391.92 383.92 409.013 391.875 431.267C399.83 453.426 401.25 479.894 396.136 510.67C391.212 540.405 381.411 565.926 366.733 587.233C352.055 608.445 333.258 624.733 310.341 636.097C287.424 647.366 261.193 653 231.648 653ZM197.415 600.301H235.199C253.475 600.301 269.479 596.892 283.21 590.074C297.036 583.256 308.352 572.744 317.159 558.54C326.061 544.335 332.358 526.153 336.051 503.994C339.555 482.972 339.318 465.926 335.341 452.858C331.458 439.695 323.93 430.083 312.756 424.023C301.581 417.867 286.903 414.79 268.722 414.79H228.239L197.415 600.301ZM416.982 653L453.345 434.818H513.857L477.493 653H416.982ZM489.851 406.409C480.855 406.409 473.421 403.426 467.55 397.46C461.773 391.4 459.406 384.203 460.447 375.869C461.489 367.347 465.561 360.15 472.663 354.278C479.766 348.312 487.815 345.33 496.811 345.33C505.807 345.33 513.146 348.312 518.828 354.278C524.51 360.15 526.877 367.347 525.93 375.869C524.983 384.203 520.959 391.4 513.857 397.46C506.849 403.426 498.847 406.409 489.851 406.409ZM610.625 739.364C590.928 739.364 574.498 736.665 561.335 731.267C548.267 725.964 538.324 718.72 531.506 709.534C524.782 700.348 521.089 690.027 520.426 678.568L577.812 671.04C578.854 675.491 580.843 679.61 583.778 683.398C586.809 687.186 591.117 690.216 596.705 692.489C602.386 694.761 609.725 695.898 618.722 695.898C631.884 695.898 643.343 692.678 653.097 686.239C662.85 679.894 668.864 669.241 671.136 654.278L677.67 614.364H675.114C671.515 620.424 666.591 626.153 660.341 631.551C654.186 636.949 646.657 641.352 637.756 644.761C628.949 648.17 618.769 649.875 607.216 649.875C590.739 649.875 576.439 646.087 564.318 638.511C552.292 630.841 543.58 619.146 538.182 603.426C532.879 587.612 532.216 567.631 536.193 543.483C540.36 518.767 547.841 498.123 558.636 481.551C569.432 464.979 582.216 452.574 596.989 444.335C611.761 436.097 627.15 431.977 643.153 431.977C655.369 431.977 665.218 434.061 672.699 438.227C680.275 442.299 686.098 447.413 690.17 453.568C694.242 459.629 697.131 465.595 698.835 471.466H701.25L707.216 434.818H767.301L730.653 655.131C727.718 673.786 720.663 689.316 709.489 701.722C698.409 714.222 684.347 723.597 667.301 729.847C650.256 736.191 631.364 739.364 610.625 739.364ZM633.352 604.42C643.011 604.42 651.676 602.006 659.347 597.176C667.112 592.252 673.598 585.244 678.807 576.153C684.015 566.968 687.661 555.983 689.744 543.199C691.828 530.415 691.78 519.335 689.602 509.96C687.519 500.491 683.447 493.152 677.386 487.943C671.42 482.735 663.561 480.131 653.807 480.131C643.769 480.131 634.962 482.83 627.386 488.227C619.811 493.53 613.513 500.917 608.494 510.386C603.57 519.856 600.114 530.794 598.125 543.199C596.042 555.794 595.947 566.684 597.841 575.869C599.83 584.96 603.759 592.015 609.631 597.034C615.502 601.958 623.409 604.42 633.352 604.42ZM779.091 653L815.455 434.818H875.966L839.602 653H779.091ZM851.96 406.409C842.964 406.409 835.53 403.426 829.659 397.46C823.883 391.4 821.515 384.203 822.557 375.869C823.598 367.347 827.67 360.15 834.773 354.278C841.875 348.312 849.924 345.33 858.92 345.33C867.917 345.33 875.256 348.312 880.938 354.278C886.619 360.15 888.987 367.347 888.04 375.869C887.093 384.203 883.068 391.4 875.966 397.46C868.958 403.426 860.956 406.409 851.96 406.409ZM1040.49 434.818L1032.96 480.273H901.428L909.098 434.818H1040.49ZM947.45 382.545H1007.96L974.155 585.955C973.208 591.542 973.35 595.898 974.581 599.023C975.812 602.053 977.848 604.184 980.689 605.415C983.625 606.646 987.128 607.261 991.2 607.261C994.041 607.261 996.929 607.025 999.865 606.551C1002.8 605.983 1005.03 605.557 1006.54 605.273L1008.81 650.301C1005.4 651.343 1000.81 652.479 995.036 653.71C989.354 654.941 982.63 655.699 974.865 655.983C960.092 656.551 947.592 654.61 937.365 650.159C927.138 645.614 919.799 638.653 915.348 629.278C910.897 619.903 909.95 608.114 912.507 593.909L947.45 382.545ZM1105.19 657.119C1091.37 657.119 1079.39 654.705 1069.25 649.875C1059.22 644.951 1051.83 637.659 1047.1 628C1042.36 618.341 1041.18 606.362 1043.54 592.062C1045.63 579.941 1049.56 569.809 1055.33 561.665C1061.21 553.426 1068.35 546.797 1076.78 541.778C1085.21 536.759 1094.54 532.924 1104.77 530.273C1115.09 527.621 1125.74 525.822 1136.73 524.875C1149.42 523.549 1159.74 522.271 1167.69 521.04C1175.74 519.809 1181.75 518.057 1185.73 515.784C1189.71 513.417 1192.12 509.913 1192.98 505.273V504.42C1194.4 495.519 1192.74 488.606 1188 483.682C1183.36 478.663 1175.93 476.153 1165.7 476.153C1154.91 476.153 1145.72 478.521 1138.15 483.256C1130.67 487.991 1125.31 494.004 1122.1 501.295L1066.98 496.75C1071.91 483.492 1079.34 472.034 1089.28 462.375C1099.32 452.621 1111.39 445.14 1125.5 439.932C1139.61 434.629 1155.43 431.977 1172.95 431.977C1185.07 431.977 1196.38 433.398 1206.9 436.239C1217.5 439.08 1226.64 443.483 1234.31 449.449C1242.08 455.415 1247.66 463.085 1251.07 472.46C1254.58 481.741 1255.29 492.867 1253.2 505.841L1228.63 653H1171.24L1176.36 622.744H1174.65C1170.01 629.562 1164.33 635.576 1157.61 640.784C1150.88 645.898 1143.17 649.922 1134.45 652.858C1125.74 655.699 1115.99 657.119 1105.19 657.119ZM1129.48 615.358C1138.29 615.358 1146.38 613.606 1153.77 610.102C1161.25 606.504 1167.41 601.674 1172.24 595.614C1177.16 589.553 1180.29 582.687 1181.61 575.017L1185.31 551.864C1183.41 553.095 1180.67 554.184 1177.07 555.131C1173.56 556.078 1169.73 556.977 1165.56 557.83C1161.49 558.587 1157.37 559.297 1153.2 559.96C1149.04 560.528 1145.3 561.097 1141.98 561.665C1134.69 562.706 1128.16 564.364 1122.38 566.636C1116.6 568.909 1111.92 571.987 1108.32 575.869C1104.72 579.657 1102.49 584.392 1101.64 590.074C1100.31 598.312 1102.26 604.61 1107.46 608.966C1112.77 613.227 1120.11 615.358 1129.48 615.358ZM1384.38 362.091L1336.09 653H1275.58L1323.87 362.091H1384.38ZM150.682 918.818H184.205V1105.75H266.591V918.818H300.114V1105.75H382.5V918.818H416.023V1137H150.682V918.818ZM477.244 1137V918.818H510.767V1013.7H532.926L611.335 918.818H654.517L566.449 1023.93L655.653 1137H612.472L540.881 1044.95H510.767V1137H477.244ZM771.74 1141.55C752.043 1141.55 734.761 1136.86 719.893 1127.48C705.121 1118.11 693.568 1104.99 685.234 1088.14C676.996 1071.28 672.876 1051.58 672.876 1029.05C672.876 1006.32 676.996 986.479 685.234 969.528C693.568 952.578 705.121 939.415 719.893 930.04C734.761 920.665 752.043 915.977 771.74 915.977C791.437 915.977 808.672 920.665 823.445 930.04C838.312 939.415 849.865 952.578 858.104 969.528C866.437 986.479 870.604 1006.32 870.604 1029.05C870.604 1051.58 866.437 1071.28 858.104 1088.14C849.865 1104.99 838.312 1118.11 823.445 1127.48C808.672 1136.86 791.437 1141.55 771.74 1141.55ZM771.74 1111.43C786.702 1111.43 799.013 1107.6 808.672 1099.93C818.331 1092.26 825.481 1082.17 830.121 1069.67C834.761 1057.17 837.081 1043.63 837.081 1029.05C837.081 1014.46 834.761 1000.87 830.121 988.278C825.481 975.684 818.331 965.504 808.672 957.739C799.013 949.973 786.702 946.091 771.74 946.091C756.778 946.091 744.467 949.973 734.808 957.739C725.149 965.504 718 975.684 713.359 988.278C708.719 1000.87 706.399 1014.46 706.399 1029.05C706.399 1043.63 708.719 1057.17 713.359 1069.67C718 1082.17 725.149 1092.26 734.808 1099.93C744.467 1107.6 756.778 1111.43 771.74 1111.43ZM902.457 1137V1105.75H910.412C916.946 1105.75 922.391 1104.47 926.747 1101.91C931.103 1099.26 934.607 1094.67 937.259 1088.14C940.005 1081.51 942.088 1072.32 943.509 1060.58C945.024 1048.74 946.113 1033.69 946.776 1015.41L950.753 918.818H1096.21V1137H1062.68V950.068H982.571L979.162 1027.91C978.404 1045.81 976.795 1061.57 974.332 1075.21C971.965 1088.75 968.319 1100.12 963.395 1109.3C958.565 1118.49 952.126 1125.4 944.077 1130.04C936.027 1134.68 925.942 1137 913.821 1137H902.457ZM1221.92 1142.11C1208.09 1142.11 1195.54 1139.51 1184.28 1134.3C1173.01 1129 1164.06 1121.38 1157.43 1111.43C1150.8 1101.39 1147.49 1089.27 1147.49 1075.07C1147.49 1062.57 1149.95 1052.44 1154.87 1044.67C1159.8 1036.81 1166.38 1030.66 1174.62 1026.2C1182.86 1021.75 1191.95 1018.44 1201.89 1016.26C1211.93 1013.99 1222.01 1012.19 1232.14 1010.86C1245.4 1009.16 1256.15 1007.88 1264.39 1007.03C1272.72 1006.08 1278.78 1004.52 1282.57 1002.34C1286.45 1000.16 1288.39 996.375 1288.39 990.977V989.841C1288.39 975.826 1284.56 964.936 1276.89 957.17C1269.31 949.405 1257.81 945.523 1242.37 945.523C1226.37 945.523 1213.82 949.027 1204.73 956.034C1195.64 963.042 1189.25 970.523 1185.55 978.477L1153.74 967.114C1159.42 953.856 1166.99 943.534 1176.46 936.148C1186.03 928.667 1196.44 923.458 1207.71 920.523C1219.08 917.492 1230.25 915.977 1241.24 915.977C1248.24 915.977 1256.29 916.83 1265.38 918.534C1274.57 920.144 1283.42 923.506 1291.95 928.619C1300.56 933.733 1307.71 941.451 1313.39 951.773C1319.08 962.095 1321.92 975.92 1321.92 993.25V1137H1288.39V1107.45H1286.69C1284.42 1112.19 1280.63 1117.26 1275.33 1122.65C1270.02 1128.05 1262.97 1132.64 1254.16 1136.43C1245.36 1140.22 1234.61 1142.11 1221.92 1142.11ZM1227.03 1112C1240.29 1112 1251.46 1109.4 1260.55 1104.19C1269.74 1098.98 1276.65 1092.26 1281.29 1084.02C1286.03 1075.78 1288.39 1067.11 1288.39 1058.02V1027.34C1286.97 1029.05 1283.85 1030.61 1279.02 1032.03C1274.29 1033.35 1268.79 1034.54 1262.54 1035.58C1256.39 1036.53 1250.37 1037.38 1244.5 1038.14C1238.73 1038.8 1234.04 1039.37 1230.44 1039.84C1221.73 1040.98 1213.58 1042.82 1206.01 1045.38C1198.53 1047.84 1192.47 1051.58 1187.83 1056.6C1183.28 1061.53 1181.01 1068.25 1181.01 1076.77C1181.01 1088.42 1185.32 1097.23 1193.93 1103.19C1202.65 1109.06 1213.68 1112 1227.03 1112Z" fill="black"/>
</svg>
