<svg width="357" height="280" viewBox="0 0 357 280" fill="none" xmlns="http://www.w3.org/2000/svg">
<path d="M455.299 279.485L407.975 185.645C399.221 168.287 387.504 152.59 373.35 139.262L346.18 113.677C332.635 100.922 316.818 90.8208 299.549 83.8966L293.918 81.6388C279.891 76.0144 264.911 73.1462 249.798 73.1911L232.962 73.2412C225.475 73.2634 218.1 75.0565 211.439 78.474L178.453 95.3977C159.318 105.215 158.611 132.31 177.208 143.113V143.113C196.778 154.48 220.861 138.366 217.818 115.939L215.779 100.906C214.761 93.4059 211.314 86.4463 205.965 81.0923L165.027 40.1175C143.236 18.3076 114.611 4.65065 83.9491 1.43548V1.43548C66.9569 -0.3463 49.7808 1.1275 33.3405 5.77796L0.226927 15.1448" stroke="black" stroke-dasharray="12 12"/>
</svg>
