<svg width="71" height="71" viewBox="0 0 71 71" fill="none" xmlns="http://www.w3.org/2000/svg">
<circle cx="35.5" cy="35.5" r="35.5" fill="#D9D9D9"/>
<path d="M16.959 31.3545H19.8066C20.5684 31.3545 21.2715 31.4805 21.916 31.7324C22.5605 31.9785 23.1201 32.3359 23.5947 32.8047C24.0752 33.2676 24.4473 33.8271 24.7109 34.4834C24.9746 35.1338 25.1064 35.8604 25.1064 36.6631C25.1064 37.4482 24.9746 38.1631 24.7109 38.8076C24.4473 39.4463 24.0752 39.9941 23.5947 40.4512C23.1201 40.9082 22.5605 41.2598 21.916 41.5059C21.2715 41.752 20.5684 41.875 19.8066 41.875H16.959C16.1914 41.875 15.4854 41.752 14.8408 41.5059C14.1963 41.2598 13.6338 40.9111 13.1533 40.46C12.6729 40.0029 12.2979 39.4551 12.0283 38.8164C11.7646 38.1777 11.6328 37.4658 11.6328 36.6807C11.6328 35.8779 11.7646 35.1514 12.0283 34.501C12.2979 33.8447 12.6729 33.2822 13.1533 32.8135C13.6338 32.3447 14.1963 31.9844 14.8408 31.7324C15.4854 31.4805 16.1914 31.3545 16.959 31.3545ZM16.959 33.4639C16.3965 33.4639 15.9014 33.5869 15.4736 33.833C15.0459 34.0791 14.7148 34.4424 14.4805 34.9229C14.2461 35.3975 14.1289 35.9834 14.1289 36.6807C14.1289 37.1846 14.1963 37.6299 14.3311 38.0166C14.4717 38.3975 14.668 38.7168 14.9199 38.9746C15.1719 39.2324 15.4707 39.4287 15.8164 39.5635C16.1621 39.6982 16.543 39.7656 16.959 39.7656H19.8242C20.3809 39.7656 20.8672 39.6455 21.2832 39.4053C21.7051 39.165 22.0332 38.8135 22.2676 38.3506C22.502 37.8877 22.6191 37.3252 22.6191 36.6631C22.6191 36.1416 22.5518 35.6816 22.417 35.2832C22.2822 34.8848 22.0918 34.5508 21.8457 34.2812C21.5996 34.0117 21.3037 33.8096 20.958 33.6748C20.6182 33.5342 20.2402 33.4639 19.8242 33.4639H16.959ZM19.6484 29.6758V43.5273H17.1172V29.6758H19.6484ZM37.3496 36.3027V36.9092C37.3496 37.8818 37.2178 38.7549 36.9541 39.5283C36.6904 40.3018 36.3184 40.9609 35.8379 41.5059C35.3574 42.0449 34.7832 42.458 34.1152 42.7451C33.4531 43.0322 32.7178 43.1758 31.9092 43.1758C31.1064 43.1758 30.3711 43.0322 29.7031 42.7451C29.041 42.458 28.4668 42.0449 27.9805 41.5059C27.4941 40.9609 27.1162 40.3018 26.8467 39.5283C26.583 38.7549 26.4512 37.8818 26.4512 36.9092V36.3027C26.4512 35.3242 26.583 34.4512 26.8467 33.6836C27.1104 32.9102 27.4824 32.251 27.9629 31.7061C28.4492 31.1611 29.0234 30.7451 29.6855 30.458C30.3535 30.1709 31.0889 30.0273 31.8916 30.0273C32.7002 30.0273 33.4355 30.1709 34.0977 30.458C34.7656 30.7451 35.3398 31.1611 35.8203 31.7061C36.3066 32.251 36.6816 32.9102 36.9453 33.6836C37.2148 34.4512 37.3496 35.3242 37.3496 36.3027ZM34.6865 36.9092V36.2852C34.6865 35.6055 34.625 35.0078 34.502 34.4922C34.3789 33.9766 34.1973 33.543 33.957 33.1914C33.7168 32.8398 33.4238 32.5762 33.0781 32.4004C32.7324 32.2188 32.3369 32.1279 31.8916 32.1279C31.4463 32.1279 31.0508 32.2188 30.7051 32.4004C30.3652 32.5762 30.0752 32.8398 29.835 33.1914C29.6006 33.543 29.4219 33.9766 29.2988 34.4922C29.1758 35.0078 29.1143 35.6055 29.1143 36.2852V36.9092C29.1143 37.583 29.1758 38.1807 29.2988 38.7021C29.4219 39.2178 29.6035 39.6543 29.8438 40.0117C30.084 40.3633 30.377 40.6299 30.7227 40.8115C31.0684 40.9932 31.4639 41.084 31.9092 41.084C32.3545 41.084 32.75 40.9932 33.0957 40.8115C33.4414 40.6299 33.7314 40.3633 33.9658 40.0117C34.2002 39.6543 34.3789 39.2178 34.502 38.7021C34.625 38.1807 34.6865 37.583 34.6865 36.9092ZM44.3721 30.2031V43H41.7441V30.2031H44.3721ZM48.3096 30.2031V32.2686H37.8682V30.2031H48.3096ZM60.0781 36.3027V36.9092C60.0781 37.8818 59.9463 38.7549 59.6826 39.5283C59.4189 40.3018 59.0469 40.9609 58.5664 41.5059C58.0859 42.0449 57.5117 42.458 56.8438 42.7451C56.1816 43.0322 55.4463 43.1758 54.6377 43.1758C53.835 43.1758 53.0996 43.0322 52.4316 42.7451C51.7695 42.458 51.1953 42.0449 50.709 41.5059C50.2227 40.9609 49.8447 40.3018 49.5752 39.5283C49.3115 38.7549 49.1797 37.8818 49.1797 36.9092V36.3027C49.1797 35.3242 49.3115 34.4512 49.5752 33.6836C49.8389 32.9102 50.2109 32.251 50.6914 31.7061C51.1777 31.1611 51.752 30.7451 52.4141 30.458C53.082 30.1709 53.8174 30.0273 54.6201 30.0273C55.4287 30.0273 56.1641 30.1709 56.8262 30.458C57.4941 30.7451 58.0684 31.1611 58.5488 31.7061C59.0352 32.251 59.4102 32.9102 59.6738 33.6836C59.9434 34.4512 60.0781 35.3242 60.0781 36.3027ZM57.415 36.9092V36.2852C57.415 35.6055 57.3535 35.0078 57.2305 34.4922C57.1074 33.9766 56.9258 33.543 56.6855 33.1914C56.4453 32.8398 56.1523 32.5762 55.8066 32.4004C55.4609 32.2188 55.0654 32.1279 54.6201 32.1279C54.1748 32.1279 53.7793 32.2188 53.4336 32.4004C53.0938 32.5762 52.8037 32.8398 52.5635 33.1914C52.3291 33.543 52.1504 33.9766 52.0273 34.4922C51.9043 35.0078 51.8428 35.6055 51.8428 36.2852V36.9092C51.8428 37.583 51.9043 38.1807 52.0273 38.7021C52.1504 39.2178 52.332 39.6543 52.5723 40.0117C52.8125 40.3633 53.1055 40.6299 53.4512 40.8115C53.7969 40.9932 54.1924 41.084 54.6377 41.084C55.083 41.084 55.4785 40.9932 55.8242 40.8115C56.1699 40.6299 56.46 40.3633 56.6943 40.0117C56.9287 39.6543 57.1074 39.2178 57.2305 38.7021C57.3535 38.1807 57.415 37.583 57.415 36.9092Z" fill="black"/>
</svg>
