<svg width="1440" height="600" viewBox="0 0 1440 600" fill="none" xmlns="http://www.w3.org/2000/svg">
<path d="M343.07 279.449L-4.76833 24.6654C-87.9098 -36.2339 -205 23.1411 -205 126.2C-205 165.742 -186.417 202.985 -154.823 226.763L169.003 470.471C176.99 476.482 185.416 481.885 194.211 486.636L345.549 568.389C368.3 580.68 393.219 588.441 418.926 591.245L480.103 597.915C536.087 604.02 592.052 586.239 634.245 548.939L816.625 387.717C872.998 337.883 952.571 323.906 1022.55 351.545L1148.06 401.114C1197.33 420.572 1252.3 419.691 1300.92 398.663L1401.5 355.165C1416.97 348.472 1430.76 338.421 1441.87 325.738L1503.23 255.699C1564.66 185.576 1491.99 79.802 1404.5 112L1186.61 169.261C1138.29 181.959 1086.98 176.114 1042.75 152.878L986.087 123.105C903.991 79.9698 803.011 98.9294 742.152 168.905L663.899 258.881C617.479 312.254 546.32 337.138 476.756 324.323L425.02 314.793C395.39 309.335 367.376 297.253 343.07 279.449Z" fill="#F8A9E9"/>
</svg>
