<svg width="1517" height="348" viewBox="0 0 1517 348" fill="none" xmlns="http://www.w3.org/2000/svg">
<rect width="1517" height="348" fill="white"/>
<path d="M145.824 247H93.5511L117.699 101.545H168.977C183.608 101.545 195.753 104.528 205.412 110.494C215.118 116.46 221.96 125.007 225.938 136.134C229.915 147.213 230.625 160.447 228.068 175.835C225.606 190.703 220.705 203.463 213.366 214.116C206.027 224.723 196.629 232.866 185.17 238.548C173.712 244.183 160.597 247 145.824 247ZM128.707 220.651H147.599C156.738 220.651 164.74 218.946 171.605 215.537C178.518 212.128 184.176 206.872 188.58 199.77C193.03 192.668 196.179 183.577 198.026 172.497C199.777 161.986 199.659 153.463 197.67 146.929C195.729 140.348 191.965 135.542 186.378 132.511C180.791 129.434 173.452 127.895 164.361 127.895H144.119L128.707 220.651ZM238.491 247L256.673 137.909H286.928L268.746 247H238.491ZM274.925 123.705C270.427 123.705 266.71 122.213 263.775 119.23C260.887 116.2 259.703 112.601 260.224 108.435C260.745 104.173 262.781 100.575 266.332 97.6392C269.883 94.6562 273.907 93.1648 278.406 93.1648C282.904 93.1648 286.573 94.6562 289.414 97.6392C292.255 100.575 293.439 104.173 292.965 108.435C292.492 112.601 290.479 116.2 286.928 119.23C283.424 122.213 279.424 123.705 274.925 123.705ZM335.312 290.182C325.464 290.182 317.249 288.832 310.668 286.134C304.134 283.482 299.162 279.86 295.753 275.267C292.391 270.674 290.545 265.513 290.213 259.784L318.906 256.02C319.427 258.245 320.421 260.305 321.889 262.199C323.404 264.093 325.559 265.608 328.352 266.744C331.193 267.881 334.863 268.449 339.361 268.449C345.942 268.449 351.671 266.839 356.548 263.619C361.425 260.447 364.432 255.12 365.568 247.639L368.835 227.682H367.557C365.758 230.712 363.295 233.577 360.17 236.276C357.093 238.974 353.329 241.176 348.878 242.881C344.474 244.585 339.384 245.438 333.608 245.438C325.369 245.438 318.22 243.544 312.159 239.756C306.146 235.92 301.79 230.073 299.091 222.213C296.439 214.306 296.108 204.315 298.097 192.241C300.18 179.884 303.92 169.562 309.318 161.276C314.716 152.99 321.108 146.787 328.494 142.668C335.881 138.548 343.575 136.489 351.577 136.489C357.685 136.489 362.609 137.53 366.349 139.614C370.137 141.65 373.049 144.206 375.085 147.284C377.121 150.314 378.565 153.297 379.418 156.233H380.625L383.608 137.909H413.651L395.327 248.065C393.859 257.393 390.331 265.158 384.744 271.361C379.205 277.611 372.173 282.298 363.651 285.423C355.128 288.596 345.682 290.182 335.312 290.182ZM346.676 222.71C351.506 222.71 355.838 221.503 359.673 219.088C363.556 216.626 366.799 213.122 369.403 208.577C372.008 203.984 373.83 198.491 374.872 192.099C375.914 185.707 375.89 180.168 374.801 175.48C373.759 170.745 371.723 167.076 368.693 164.472C365.71 161.867 361.78 160.565 356.903 160.565C351.884 160.565 347.481 161.915 343.693 164.614C339.905 167.265 336.757 170.958 334.247 175.693C331.785 180.428 330.057 185.897 329.062 192.099C328.021 198.397 327.973 203.842 328.92 208.435C329.915 212.98 331.88 216.508 334.815 219.017C337.751 221.479 341.705 222.71 346.676 222.71ZM419.545 247L437.727 137.909H467.983L449.801 247H419.545ZM455.98 123.705C451.482 123.705 447.765 122.213 444.83 119.23C441.941 116.2 440.758 112.601 441.278 108.435C441.799 104.173 443.835 100.575 447.386 97.6392C450.938 94.6562 454.962 93.1648 459.46 93.1648C463.958 93.1648 467.628 94.6562 470.469 97.6392C473.31 100.575 474.493 104.173 474.02 108.435C473.546 112.601 471.534 116.2 467.983 119.23C464.479 122.213 460.478 123.705 455.98 123.705ZM550.245 137.909L546.481 160.636H480.714L484.549 137.909H550.245ZM503.725 111.773H533.981L517.077 213.477C516.604 216.271 516.675 218.449 517.29 220.011C517.906 221.527 518.924 222.592 520.344 223.207C521.812 223.823 523.564 224.131 525.6 224.131C527.021 224.131 528.465 224.012 529.933 223.776C531.4 223.491 532.513 223.278 533.271 223.136L534.407 245.651C532.702 246.171 530.406 246.74 527.518 247.355C524.677 247.971 521.315 248.349 517.433 248.491C510.046 248.776 503.796 247.805 498.683 245.58C493.569 243.307 489.899 239.827 487.674 235.139C485.449 230.452 484.975 224.557 486.254 217.455L503.725 111.773ZM582.596 249.06C575.683 249.06 569.693 247.852 564.627 245.438C559.608 242.975 555.915 239.33 553.548 234.5C551.18 229.67 550.588 223.681 551.772 216.531C552.814 210.471 554.779 205.404 557.667 201.332C560.603 197.213 564.177 193.899 568.391 191.389C572.605 188.88 577.269 186.962 582.383 185.636C587.544 184.311 592.871 183.411 598.363 182.938C604.708 182.275 609.869 181.635 613.846 181.02C617.871 180.404 620.877 179.528 622.866 178.392C624.854 177.208 626.062 175.456 626.488 173.136V172.71C627.198 168.259 626.37 164.803 624.002 162.341C621.682 159.831 617.965 158.577 612.852 158.577C607.454 158.577 602.861 159.76 599.073 162.128C595.333 164.495 592.657 167.502 591.048 171.148L563.491 168.875C565.953 162.246 569.67 156.517 574.641 151.688C579.66 146.811 585.697 143.07 592.752 140.466C599.807 137.814 607.714 136.489 616.474 136.489C622.534 136.489 628.192 137.199 633.448 138.619C638.751 140.04 643.32 142.241 647.156 145.224C651.038 148.207 653.832 152.043 655.536 156.73C657.288 161.37 657.643 166.934 656.602 173.42L644.315 247H615.621L618.178 231.872H617.326C615.006 235.281 612.165 238.288 608.803 240.892C605.442 243.449 601.583 245.461 597.227 246.929C592.871 248.349 587.994 249.06 582.596 249.06ZM594.741 228.179C599.144 228.179 603.192 227.303 606.886 225.551C610.626 223.752 613.704 221.337 616.119 218.307C618.581 215.277 620.143 211.844 620.806 208.009L622.653 196.432C621.706 197.047 620.333 197.592 618.533 198.065C616.781 198.539 614.864 198.989 612.781 199.415C610.745 199.794 608.685 200.149 606.602 200.48C604.518 200.764 602.648 201.048 600.991 201.332C597.345 201.853 594.078 202.682 591.19 203.818C588.301 204.955 585.958 206.493 584.158 208.435C582.359 210.329 581.246 212.696 580.82 215.537C580.157 219.656 581.128 222.805 583.732 224.983C586.384 227.114 590.053 228.179 594.741 228.179ZM722.191 101.545L698.043 247H667.788L691.935 101.545H722.191ZM797.138 176.83V192.455H733.501V176.83H797.138ZM826.63 137.909H843.391V231.375H884.585V137.909H901.346V231.375H942.539V137.909H959.3V247H826.63V137.909ZM989.911 247V137.909H1006.67V185.352H1017.75L1056.96 137.909H1078.55L1034.51 190.466L1079.12 247H1057.52L1021.73 200.977H1006.67V247H989.911ZM1137.16 249.273C1127.31 249.273 1118.67 246.929 1111.24 242.241C1103.85 237.554 1098.07 230.996 1093.91 222.568C1089.79 214.14 1087.73 204.292 1087.73 193.023C1087.73 181.659 1089.79 171.74 1093.91 163.264C1098.07 154.789 1103.85 148.207 1111.24 143.52C1118.67 138.832 1127.31 136.489 1137.16 136.489C1147.01 136.489 1155.63 138.832 1163.01 143.52C1170.45 148.207 1176.22 154.789 1180.34 163.264C1184.51 171.74 1186.59 181.659 1186.59 193.023C1186.59 204.292 1184.51 214.14 1180.34 222.568C1176.22 230.996 1170.45 237.554 1163.01 242.241C1155.63 246.929 1147.01 249.273 1137.16 249.273ZM1137.16 234.216C1144.64 234.216 1150.8 232.298 1155.62 228.463C1160.45 224.628 1164.03 219.585 1166.35 213.335C1168.67 207.085 1169.83 200.314 1169.83 193.023C1169.83 185.731 1168.67 178.937 1166.35 172.639C1164.03 166.342 1160.45 161.252 1155.62 157.369C1150.8 153.487 1144.64 151.545 1137.16 151.545C1129.68 151.545 1123.52 153.487 1118.69 157.369C1113.86 161.252 1110.29 166.342 1107.97 172.639C1105.65 178.937 1104.49 185.731 1104.49 193.023C1104.49 200.314 1105.65 207.085 1107.97 213.335C1110.29 219.585 1113.86 224.628 1118.69 228.463C1123.52 232.298 1129.68 234.216 1137.16 234.216ZM1202.52 247V231.375H1206.5C1209.76 231.375 1212.48 230.736 1214.66 229.457C1216.84 228.132 1218.59 225.835 1219.92 222.568C1221.29 219.254 1222.33 214.661 1223.04 208.79C1223.8 202.871 1224.35 195.343 1224.68 186.205L1226.67 137.909H1299.39V247H1282.63V153.534H1242.57L1240.87 192.455C1240.49 201.403 1239.69 209.287 1238.46 216.105C1237.27 222.876 1235.45 228.558 1232.99 233.151C1230.57 237.743 1227.35 241.2 1223.33 243.52C1219.3 245.84 1214.26 247 1208.2 247H1202.52ZM1362.25 249.557C1355.33 249.557 1349.06 248.255 1343.43 245.651C1337.79 242.999 1333.32 239.188 1330 234.216C1326.69 229.197 1325.03 223.136 1325.03 216.034C1325.03 209.784 1326.26 204.718 1328.73 200.835C1331.19 196.905 1334.48 193.828 1338.6 191.602C1342.72 189.377 1347.26 187.72 1352.23 186.631C1357.25 185.494 1362.3 184.595 1367.36 183.932C1373.99 183.08 1379.36 182.44 1383.48 182.014C1387.65 181.541 1390.68 180.759 1392.57 179.67C1394.52 178.581 1395.49 176.687 1395.49 173.989V173.42C1395.49 166.413 1393.57 160.968 1389.73 157.085C1385.95 153.203 1380.19 151.261 1372.48 151.261C1364.47 151.261 1358.2 153.013 1353.65 156.517C1349.11 160.021 1345.91 163.761 1344.07 167.739L1328.16 162.057C1331 155.428 1334.79 150.267 1339.52 146.574C1344.3 142.833 1349.51 140.229 1355.15 138.761C1360.83 137.246 1366.41 136.489 1371.91 136.489C1375.41 136.489 1379.44 136.915 1383.98 137.767C1388.57 138.572 1393 140.253 1397.26 142.81C1401.57 145.366 1405.15 149.225 1407.99 154.386C1410.83 159.547 1412.25 166.46 1412.25 175.125V247H1395.49V232.227H1394.63C1393.5 234.595 1391.6 237.128 1388.95 239.827C1386.3 242.526 1382.77 244.822 1378.37 246.716C1373.97 248.61 1368.59 249.557 1362.25 249.557ZM1364.8 234.5C1371.43 234.5 1377.02 233.198 1381.57 230.594C1386.16 227.99 1389.62 224.628 1391.94 220.509C1394.3 216.389 1395.49 212.057 1395.49 207.511V192.17C1394.78 193.023 1393.21 193.804 1390.8 194.514C1388.43 195.177 1385.69 195.769 1382.56 196.29C1379.48 196.763 1376.48 197.189 1373.54 197.568C1370.65 197.9 1368.31 198.184 1366.51 198.42C1362.15 198.989 1358.08 199.912 1354.29 201.19C1350.55 202.421 1347.52 204.292 1345.2 206.801C1342.93 209.263 1341.79 212.625 1341.79 216.886C1341.79 222.71 1343.95 227.114 1348.26 230.097C1352.61 233.032 1358.13 234.5 1364.8 234.5Z" fill="black"/>
</svg>
