<svg width="159" height="159" viewBox="0 0 159 159" fill="none" xmlns="http://www.w3.org/2000/svg">
<circle cx="79.5" cy="79.5" r="79.5" fill="#D9D9D9"/>
<path d="M65.6768 73.2031V75.2686H59.3135V73.2031H65.6768ZM67.5576 73.2031V86H64.9209V73.2031H67.5576ZM58.9795 73.2031H61.6074L61.2822 79.6279C61.2354 80.5889 61.1445 81.4238 61.0098 82.1328C60.8809 82.8418 60.7051 83.4453 60.4824 83.9434C60.2598 84.4355 59.9844 84.834 59.6562 85.1387C59.334 85.4375 58.9531 85.6572 58.5137 85.7979C58.0742 85.9326 57.5732 86 57.0107 86H56.3604V83.9434L56.6943 83.917C56.9814 83.8877 57.2334 83.8115 57.4502 83.6885C57.667 83.5654 57.8516 83.3809 58.0039 83.1348C58.1621 82.8887 58.291 82.5752 58.3906 82.1943C58.4961 81.8076 58.5781 81.3359 58.6367 80.7793C58.7012 80.2227 58.7451 79.5723 58.7686 78.8281L58.9795 73.2031ZM80.3633 79.3027V79.9092C80.3633 80.8818 80.2314 81.7549 79.9678 82.5283C79.7041 83.3018 79.332 83.9609 78.8516 84.5059C78.3711 85.0449 77.7969 85.458 77.1289 85.7451C76.4668 86.0322 75.7314 86.1758 74.9229 86.1758C74.1201 86.1758 73.3848 86.0322 72.7168 85.7451C72.0547 85.458 71.4805 85.0449 70.9941 84.5059C70.5078 83.9609 70.1299 83.3018 69.8604 82.5283C69.5967 81.7549 69.4648 80.8818 69.4648 79.9092V79.3027C69.4648 78.3242 69.5967 77.4512 69.8604 76.6836C70.124 75.9102 70.4961 75.251 70.9766 74.7061C71.4629 74.1611 72.0371 73.7451 72.6992 73.458C73.3672 73.1709 74.1025 73.0273 74.9053 73.0273C75.7139 73.0273 76.4492 73.1709 77.1113 73.458C77.7793 73.7451 78.3535 74.1611 78.834 74.7061C79.3203 75.251 79.6953 75.9102 79.959 76.6836C80.2285 77.4512 80.3633 78.3242 80.3633 79.3027ZM77.7002 79.9092V79.2852C77.7002 78.6055 77.6387 78.0078 77.5156 77.4922C77.3926 76.9766 77.2109 76.543 76.9707 76.1914C76.7305 75.8398 76.4375 75.5762 76.0918 75.4004C75.7461 75.2188 75.3506 75.1279 74.9053 75.1279C74.46 75.1279 74.0645 75.2188 73.7188 75.4004C73.3789 75.5762 73.0889 75.8398 72.8486 76.1914C72.6143 76.543 72.4355 76.9766 72.3125 77.4922C72.1895 78.0078 72.1279 78.6055 72.1279 79.2852V79.9092C72.1279 80.583 72.1895 81.1807 72.3125 81.7021C72.4355 82.2178 72.6172 82.6543 72.8574 83.0117C73.0977 83.3633 73.3906 83.6299 73.7363 83.8115C74.082 83.9932 74.4775 84.084 74.9229 84.084C75.3682 84.084 75.7637 83.9932 76.1094 83.8115C76.4551 83.6299 76.7451 83.3633 76.9795 83.0117C77.2139 82.6543 77.3926 82.2178 77.5156 81.7021C77.6387 81.1807 77.7002 80.583 77.7002 79.9092ZM90.6641 73.2031V75.2686H84.8984V86H82.2705V73.2031H90.6641ZM102.213 79.3027V79.9092C102.213 80.8818 102.081 81.7549 101.817 82.5283C101.554 83.3018 101.182 83.9609 100.701 84.5059C100.221 85.0449 99.6465 85.458 98.9785 85.7451C98.3164 86.0322 97.5811 86.1758 96.7725 86.1758C95.9697 86.1758 95.2344 86.0322 94.5664 85.7451C93.9043 85.458 93.3301 85.0449 92.8438 84.5059C92.3574 83.9609 91.9795 83.3018 91.71 82.5283C91.4463 81.7549 91.3145 80.8818 91.3145 79.9092V79.3027C91.3145 78.3242 91.4463 77.4512 91.71 76.6836C91.9736 75.9102 92.3457 75.251 92.8262 74.7061C93.3125 74.1611 93.8867 73.7451 94.5488 73.458C95.2168 73.1709 95.9521 73.0273 96.7549 73.0273C97.5635 73.0273 98.2988 73.1709 98.9609 73.458C99.6289 73.7451 100.203 74.1611 100.684 74.7061C101.17 75.251 101.545 75.9102 101.809 76.6836C102.078 77.4512 102.213 78.3242 102.213 79.3027ZM99.5498 79.9092V79.2852C99.5498 78.6055 99.4883 78.0078 99.3652 77.4922C99.2422 76.9766 99.0605 76.543 98.8203 76.1914C98.5801 75.8398 98.2871 75.5762 97.9414 75.4004C97.5957 75.2188 97.2002 75.1279 96.7549 75.1279C96.3096 75.1279 95.9141 75.2188 95.5684 75.4004C95.2285 75.5762 94.9385 75.8398 94.6982 76.1914C94.4639 76.543 94.2852 76.9766 94.1621 77.4922C94.0391 78.0078 93.9775 78.6055 93.9775 79.2852V79.9092C93.9775 80.583 94.0391 81.1807 94.1621 81.7021C94.2852 82.2178 94.4668 82.6543 94.707 83.0117C94.9473 83.3633 95.2402 83.6299 95.5859 83.8115C95.9316 83.9932 96.3271 84.084 96.7725 84.084C97.2178 84.084 97.6133 83.9932 97.959 83.8115C98.3047 83.6299 98.5947 83.3633 98.8291 83.0117C99.0635 82.6543 99.2422 82.2178 99.3652 81.7021C99.4883 81.1807 99.5498 80.583 99.5498 79.9092Z" fill="black"/>
</svg>
