<svg width="39" height="39" viewBox="0 0 39 39" fill="none" xmlns="http://www.w3.org/2000/svg">
<path d="M33.8313 10.3373C36.6859 10.3373 38.9999 8.02325 38.9999 5.16867C38.9999 2.3141 36.6859 0 33.8313 0C30.9767 0 28.6626 2.3141 28.6626 5.16867C28.6626 8.02325 30.9767 10.3373 33.8313 10.3373Z" fill="white"/>
<path d="M32.027 12.9687C29.0761 12.3296 26.6704 9.92385 26.0313 6.97301C25.787 5.8265 25.7682 4.71759 25.9749 3.66506C26.2193 2.49976 25.3547 1.40964 24.1518 1.40964H9.39759C4.21012 1.40964 0 5.61976 0 10.8072V23.8699C0 29.0573 4.21012 33.2675 9.39759 33.2675H12.2169C12.7431 33.2675 13.4198 33.6058 13.7205 34.0193L16.5398 37.7595C17.7802 39.4135 19.8101 39.4135 21.0506 37.7595L23.8699 34.0193C24.227 33.5494 24.772 33.2675 25.3735 33.2675H28.2116C33.399 33.2675 37.5904 29.0761 37.5904 23.8887V14.8482C37.5904 13.6641 36.5002 12.7995 35.3349 13.0251C34.2824 13.213 33.1735 13.213 32.027 12.9687ZM11.2771 20.2048C10.2246 20.2048 9.39759 19.359 9.39759 18.3253C9.39759 17.2916 10.2246 16.4458 11.2771 16.4458C12.3108 16.4458 13.1566 17.2916 13.1566 18.3253C13.1566 19.359 12.3296 20.2048 11.2771 20.2048ZM18.7952 20.2048C17.7426 20.2048 16.9157 19.359 16.9157 18.3253C16.9157 17.2916 17.7426 16.4458 18.7952 16.4458C19.8289 16.4458 20.6747 17.2916 20.6747 18.3253C20.6747 19.359 19.8477 20.2048 18.7952 20.2048ZM26.3133 20.2048C25.2607 20.2048 24.4337 19.359 24.4337 18.3253C24.4337 17.2916 25.2607 16.4458 26.3133 16.4458C27.347 16.4458 28.1928 17.2916 28.1928 18.3253C28.1928 19.359 27.3658 20.2048 26.3133 20.2048Z" fill="white"/>
</svg>
